<svg xmlns="http://www.w3.org/2000/svg" version="1.1" viewBox="0 0 866.4127502441406 987.9961853027344" width="1732.8255004882812" height="1975.9923706054688">
  <style>
    text {
      font-family: Helvetica;
    }
  </style>
  <rect x="0" y="0" width="866.4127502441406" height="987.9961853027344" fill="#ffffff"/><g stroke-linecap="round" transform="translate(163.79574584960938 10) rotate(0 132.73306274414062 66.13421630859375)"><path d="M-1.47 -1.04 C98.9 -1.34, 196.32 -0.48, 264.44 -0.79 M-0.46 0.74 C89.92 -1.5, 180.62 -1.48, 265.42 0.62 M265.32 1.75 C263.28 50.14, 262.92 100.88, 263.82 132.56 M265.1 -0.95 C265.33 52.33, 266.05 104.33, 264.53 132.11 M264.22 133.13 C174.8 134.66, 84.27 132.98, -0.18 132.93 M264.93 132.83 C196.1 131.21, 125.32 131.83, -0.22 132.12 M0.1 130.98 C0.84 102.4, 2.76 74.83, 1.38 0.97 M0.94 131.98 C1.64 90.89, 0.74 50.14, 0.05 -0.43" stroke="#000000" stroke-width="1" fill="none"/></g><g transform="translate(185.69625854492188 22.532196044921875) rotate(0 112.5 25)"><switch><text x="0" y="18" font-size="20px" fill="#000000" text-anchor="start" id="trsvg11-de" systemLanguage="de"><tspan id="trsvg1-de">Datum und Benutzer Details</tspan></text><text x="0" y="18" font-size="20px" fill="#000000" text-anchor="start" id="trsvg11-el" systemLanguage="el"><tspan id="trsvg1-el">Ημερομηνία και στοιχεία χρήστη</tspan></text><text x="0" y="18" font-size="20px" fill="#000000" text-anchor="start" id="trsvg11"><tspan id="trsvg1">Date and user details</tspan></text></switch><switch><text x="0" y="43" font-size="20px" fill="#000000" text-anchor="start" id="trsvg12-de" systemLanguage="de"><tspan id="trsvg2-de">Vorherige Version</tspan></text><text x="0" y="43" font-size="20px" fill="#000000" text-anchor="start" id="trsvg12-el" systemLanguage="el"><tspan id="trsvg2-el">προηγούμενης έκδοσης</tspan></text><text x="0" y="43" font-size="20px" fill="#000000" text-anchor="start" id="trsvg12"><tspan id="trsvg2">    previous version</tspan></text></switch></g><g stroke-linecap="round" transform="translate(530.5654602050781 10.996826171875) rotate(0 159.31005859375 66.13421630859375)"><path d="M0.32 -0.78 C111.84 -0.8, 221.35 1, 317.61 -0.3 M0.61 -0.32 C88.58 -1.99, 177.11 -1.48, 318.49 0.04 M320.52 1.53 C317.41 45.63, 320.08 90.55, 316.62 131.14 M319.16 -0.74 C319.28 37.73, 318.82 75.42, 319.5 132.42 M319.97 132.16 C223.78 130.35, 127.45 130.73, -0.45 132.54 M319.24 132.36 C249.96 132.11, 182.38 132.5, 0.05 132.03 M1.16 132.98 C-0.72 89.29, -1.31 43.3, 0.57 -0.83 M0.65 131.57 C0.11 86.34, 0.89 39.69, -0.28 -0.6" stroke="#000000" stroke-width="1" fill="none"/></g><g transform="translate(591.4170227050781 21.906280517578125) rotate(0 112.5 25)"><switch><text x="0" y="18" font-size="20px" fill="#000000" text-anchor="start" id="trsvg13-de" systemLanguage="de"><tspan id="trsvg3-de">Datum und Benutzer Details</tspan></text><text x="0" y="18" font-size="20px" fill="#000000" text-anchor="start" id="trsvg13-el" systemLanguage="el"><tspan id="trsvg3-el">Ημερομηνία και στοιχεία χρήστη</tspan></text><text x="0" y="18" font-size="20px" fill="#000000" text-anchor="start" id="trsvg13"><tspan id="trsvg3">Date and user details</tspan></text></switch><switch><text x="0" y="43" font-size="20px" fill="#000000" text-anchor="start" id="trsvg14-de" systemLanguage="de"><tspan id="trsvg4-de">Neuere Version</tspan></text><text x="0" y="43" font-size="20px" fill="#000000" text-anchor="start" id="trsvg14-el" systemLanguage="el"><tspan id="trsvg4-el">νεότερης έκδοσης</tspan></text><text x="0" y="43" font-size="20px" fill="#000000" text-anchor="start" id="trsvg14"><tspan id="trsvg4">    newer version</tspan></text></switch></g><g stroke-linecap="round" transform="translate(163.10775756835938 203.96066284179688) rotate(0 130.73788452148438 182.0888671875)"><path d="M-0.52 -0.55 C81.34 1.94, 164.85 1.42, 262.24 -1.23 M-0.65 0.04 C89.58 -0.33, 179.04 0.39, 260.69 0 M262.29 0.91 C262.67 87.44, 262.99 172.72, 261.05 363.02 M261.11 -0.53 C259.98 121.77, 260.03 243.18, 262.09 363.62 M261.67 362.8 C163.48 363.39, 64.49 363.31, -0.08 364.31 M260.86 363.54 C199.05 366.54, 135.53 366.34, -0.07 364.71 M-1.09 364.77 C0.09 232.98, 0.14 101.24, -0.66 0.02 M0.42 364.1 C2.05 288.17, 1.64 210.68, 0.34 0.29" stroke="#000000" stroke-width="1" fill="none"/></g><g stroke-linecap="round" transform="translate(528.4100036621094 204.71713256835938) rotate(0 162.81085205078125 182.0888671875)"><path d="M-0.88 -1.2 C66.76 1.51, 134.77 0.26, 325.33 -1.15 M0.36 0.07 C112.46 0.18, 225.81 0.9, 326.01 0.38 M326.58 1.15 C322.83 89.03, 323.64 181.05, 326.28 365.41 M325.43 0.09 C325.58 74.09, 325.14 149.44, 325.04 363.99 M326.51 364.88 C214.37 364.35, 103.57 364.6, -1.08 363.24 M326.24 364.4 C241.98 364.86, 158.35 364.11, -0.41 364.42 M0.66 365.14 C-0.85 238.83, -1.42 113.27, -0.03 -0.34 M0.59 364.07 C-0.2 254.48, -0.28 146.33, -0.28 -0.44" stroke="#000000" stroke-width="1" fill="none"/></g><g transform="translate(169.600830078125 174.5419921875) rotate(0 56 12.5)"><switch><text x="0" y="18" font-size="20px" fill="#000000" text-anchor="start" id="trsvg15-de" systemLanguage="de"><tspan id="trsvg5-de">Zeilennummer</tspan></text><text x="0" y="18" font-size="20px" fill="#000000" text-anchor="start" id="trsvg15-el" systemLanguage="el"><tspan id="trsvg5-el">Αριθμός γραμμής</tspan></text><text x="0" y="18" font-size="20px" fill="#000000" text-anchor="start" id="trsvg15"><tspan id="trsvg5">Line number</tspan></text></switch></g><g transform="translate(536.1997985839844 172.99142456054688) rotate(0 56 12.5)"><switch><text x="0" y="18" font-size="20px" fill="#000000" text-anchor="start" id="trsvg16-de" systemLanguage="de"><tspan id="trsvg6-de">Zeilennummer</tspan></text><text x="0" y="18" font-size="20px" fill="#000000" text-anchor="start" id="trsvg16-el" systemLanguage="el"><tspan id="trsvg6-el">Αριθμός γραμμής</tspan></text><text x="0" y="18" font-size="20px" fill="#000000" text-anchor="start" id="trsvg16"><tspan id="trsvg6">Line number</tspan></text></switch></g><g transform="translate(263.6922912597656 349.2889709472656) rotate(0 64 12.5)"><switch><text x="0" y="18" font-size="20px" fill="#000000" text-anchor="start" id="trsvg17-de" systemLanguage="de"><tspan id="trsvg7-de">Vorheriges Diff</tspan></text><text x="0" y="18" font-size="20px" fill="#000000" text-anchor="start" id="trsvg17-el" systemLanguage="el"><tspan id="trsvg7-el">Προηγούμενη διαφορά</tspan></text><text x="0" y="18" font-size="20px" fill="#000000" text-anchor="start" id="trsvg17"><tspan id="trsvg7">Previous diff</tspan></text></switch></g><g transform="translate(632.9973449707031 343.2752990722656) rotate(0 51.5 12.5)"><switch><text x="0" y="18" font-size="20px" fill="#000000" text-anchor="start" id="trsvg18-de" systemLanguage="de"><tspan id="trsvg8-de">Neueres Diff</tspan></text><text x="0" y="18" font-size="20px" fill="#000000" text-anchor="start" id="trsvg18-el" systemLanguage="el"><tspan id="trsvg8-el">Νεότερη διαφορά</tspan></text><text x="0" y="18" font-size="20px" fill="#000000" text-anchor="start" id="trsvg18"><tspan id="trsvg8">Newer diff</tspan></text></switch></g><g stroke-linecap="round" transform="translate(173.49307250976562 613.8184509277344) rotate(0 341.4598388671875 182.0888671875)"><path d="M0.4 0.51 C255.1 1.08, 509.97 1.75, 683.49 -0.18 M-0.1 0.22 C240.49 0.5, 481.22 -0.18, 682.56 -0.13 M684.16 0.94 C683.93 85.35, 685.72 170.67, 681.93 363.88 M682.72 -0.21 C681.95 120.32, 681.34 241.3, 683.31 363.82 M683.42 364.9 C513.38 362.35, 343.97 362.34, -0.69 364.54 M682.97 363.79 C435.51 363.97, 187.54 363.91, -0.21 364.3 M-0.84 365.34 C-1.62 229.31, -1.91 93.17, -1.14 -0.32 M0.12 363.82 C-2.23 256.18, -1.95 148.13, 0.22 0.49" stroke="#000000" stroke-width="1" fill="none"/></g><g stroke-linecap="round" transform="translate(194.99020385742188 657.7407531738281) rotate(0 290.4145812988281 9.444122314453125)"><path d="M-0.45 -0.44 C224.35 -1.67, 448.88 -1.61, 580.74 0.48 M-0.01 0.03 C210.99 -1.43, 421.98 -1.62, 580.84 -0.2 M580.72 -1.82 C581.08 7.79, 579.53 13.99, 579.6 18.67 M581.68 -0.84 C581.62 7.33, 580.01 14.4, 580.33 17.98 M581.02 19.57 C365.3 17.47, 149.49 16.15, -0.72 18.37 M580.5 18.94 C405.72 19.33, 230.57 19.33, -0.08 18.87 M0.44 18.17 C1.17 11.83, -0.06 4.47, 0.24 -0.19 M-0.05 18.59 C0.08 12.07, -0.34 5.11, 0.78 0.85" stroke="#000000" stroke-width="1" fill="none"/></g><g stroke-linecap="round" transform="translate(195.927734375 698.7598876953125) rotate(0 290.4145812988281 9.444122314453125)"><path d="M0.48 0.52 C181.87 -0.53, 362.35 -1.18, 580.05 0.61 M0.28 0.04 C197.16 2.13, 393.89 1.97, 580.7 0.06 M582.26 -1.68 C582.36 5.64, 581.99 8.42, 579.25 19.56 M581.73 0.01 C580.45 6.62, 580.36 12.71, 581.27 17.99 M581.52 18.32 C456.17 17.84, 329.86 16.99, -0.63 18.59 M580.66 19.03 C394.05 19.29, 207.69 19.53, -0.1 19.26 M-1.86 18.54 C-0.05 15.62, 0.84 7.81, -0.08 -1.32 M0.5 18.95 C-0.27 12.59, -0.34 7.59, -0.87 0.4" stroke="#000000" stroke-width="1" fill="none"/></g><g stroke-linecap="round" transform="translate(196.69505310058594 739.4766998291016) rotate(0 290.4145812988281 9.444122314453125)"><path d="M0.37 -0.47 C118.49 -0.51, 236.3 -0.09, 580.24 -0.17 M0.2 -0.39 C189.58 -1.47, 379.46 -1.57, 581.03 -0.26 M581.46 0.02 C578.95 4.49, 579.92 6.53, 582.01 17.27 M580.2 0.87 C580.03 5.47, 581.09 11.91, 581.53 19.1 M580.31 18.3 C399.05 18.71, 216.24 19.99, 0.27 18.78 M581.13 19.26 C441.77 18.51, 302.32 18.98, 0.17 18.51 M1.63 19.93 C1.88 12.63, -1.7 5.39, 0.85 -1.12 M-0.58 18.2 C-0.68 11.51, -0.23 5.22, -0.18 -0.31" stroke="#000000" stroke-width="1" fill="none"/></g><g stroke-linecap="round" transform="translate(197.63258361816406 780.4958343505859) rotate(0 290.4145812988281 9.444122314453125)"><path d="M-0.47 0.29 C231.46 -1.16, 463.53 -1.66, 580.66 0.21 M-0.39 -0.27 C191.19 -1.39, 382.05 -0.94, 580.57 -0.31 M580.85 -1.72 C581.17 3.29, 579.03 9.26, 579.21 18.79 M581.7 -0.94 C580.9 7.23, 581.78 14.93, 581.05 19.02 M580.24 19.17 C365.28 16.92, 151.78 17.65, -0.11 18.41 M581.2 19.28 C367.4 20.99, 154.75 20.78, -0.38 19.27 M1.04 20.61 C1.36 12.99, 1.57 11.67, -1.12 1.04 M-0.69 18.18 C-0.52 13.3, -0.1 8.08, -0.31 0.73" stroke="#000000" stroke-width="1" fill="none"/></g><g stroke-linecap="round" transform="translate(198.89268493652344 823.6788482666016) rotate(0 290.4145812988281 9.444122314453125)"><path d="M0.25 -0.52 C118.55 -0.74, 236.16 -1.28, 580.42 0.51 M-0.35 0.11 C154.15 1.47, 308.03 1.46, 580.66 0.3 M581.29 -0.72 C581.41 5, 581.05 12.52, 580.68 20.59 M581.33 0.71 C580.92 3.53, 580.61 7.28, 580.93 19.1 M580.59 19.21 C463.91 20.9, 346.1 21.75, -0.32 18.8 M581.17 19.18 C368.38 19.69, 155.58 19.79, -0.02 18.7 M1.05 19.98 C1.34 14.92, -0.09 8.48, -1.76 1.04 M0.27 19.78 C-0.45 11.34, -0.75 5.21, 0.8 -0.9" stroke="#000000" stroke-width="1" fill="none"/></g><g stroke-linecap="round" transform="translate(199.83021545410156 864.6979827880859) rotate(0 290.4145812988281 9.444122314453125)"><path d="M-0.52 0.26 C217.4 -1.15, 434.45 -1.13, 581.34 -0.28 M0.11 0.28 C227.34 2.32, 454.86 1.85, 581.12 0.09 M580.11 0.53 C579.71 6.37, 581.13 12.25, 582.54 17.14 M581.54 0.02 C580.52 6.09, 580.35 12.86, 581.04 17.96 M581.15 19.42 C399.72 18.37, 219.54 17.89, -0.09 19.42 M581.12 19.08 C457.81 20.92, 334.64 20.86, -0.18 18.92 M1.09 20.27 C1.9 12.75, 1.25 4.95, 1.04 1.58 M0.89 18.53 C-0.43 11.68, 0.69 6.59, -0.9 -0.01" stroke="#000000" stroke-width="1" fill="none"/></g><g transform="translate(177.96804809570312 581.9770202636719) rotate(0 199 12.5)"><switch><text x="0" y="18" font-size="20px" fill="#000000" text-anchor="start" id="trsvg19-de" systemLanguage="de"><tspan id="trsvg9-de">Neuere Version des Textes der Seite</tspan></text><text x="0" y="18" font-size="20px" fill="#000000" text-anchor="start" id="trsvg19-el" systemLanguage="el"><tspan id="trsvg9-el">Νεότερη έκδοση του κειμένου της σελίδας</tspan></text><text x="0" y="18" font-size="20px" fill="#000000" text-anchor="start" id="trsvg19"><tspan id="trsvg9">Newer version of the text of the page </tspan></text></switch></g><g transform="translate(113.58895874023438 409.0668029785156) rotate(0 -1.481475830078125 14.44207763671875)" stroke="none"><path fill="#000000" d="M 0.16,2.67 Q 0.16,2.67 -0.92,2.76 -2.02,2.85 -3.59,2.96 -5.16,3.07 -6.62,3.65 -8.09,4.23 -9.26,4.85 -10.44,5.48 -11.64,6.21 -12.84,6.94 -14.04,7.29 -15.24,7.65 -15.84,8.58 -16.44,9.52 -16.73,10.91 -17.02,12.31 -17.22,13.40 -17.41,14.48 -17.50,15.73 -17.59,16.97 -17.59,18.41 -17.59,19.85 -17.59,20.93 -17.59,22.01 -17.58,23.15 -17.57,24.28 -18.40,23.62 -19.24,22.96 -17.94,23.09 -16.65,23.21 -15.12,23.86 -13.59,24.51 -12.25,24.74 -10.92,24.98 -9.66,25.02 -8.41,25.07 -7.23,25.06 -6.06,25.05 -4.94,25.04 -3.83,25.04 -2.69,25.03 -1.55,25.02 -0.41,25.02 0.71,25.01 1.84,25.01 2.97,25.02 4.05,25.02 5.14,25.03 6.37,25.03 7.60,25.03 8.67,25.03 9.74,25.03 10.94,25.03 12.15,25.03 13.21,25.03 14.28,25.02 16.24,25.02 18.19,25.02 18.81,25.12 19.42,25.23 19.97,25.52 20.52,25.81 20.95,26.26 21.38,26.72 21.64,27.28 21.91,27.85 21.97,28.47 22.04,29.09 21.91,29.70 21.77,30.31 21.45,30.84 21.13,31.38 20.65,31.78 20.18,32.18 19.60,32.41 19.02,32.64 18.40,32.68 17.77,32.71 17.17,32.54 16.57,32.38 16.06,32.03 15.54,31.68 15.16,31.18 14.78,30.68 14.59,30.09 14.39,29.50 14.39,28.88 14.39,28.25 14.59,27.66 14.79,27.07 15.16,26.58 15.54,26.08 16.06,25.73 16.57,25.38 17.17,25.21 17.78,25.05 18.40,25.08 19.02,25.11 19.60,25.35 20.18,25.58 20.65,25.98 21.13,26.38 21.45,26.92 21.77,27.45 21.91,28.06 22.04,28.67 21.97,29.29 21.91,29.91 21.64,30.48 21.38,31.04 20.95,31.50 20.52,31.95 19.97,32.24 19.42,32.53 18.81,32.63 18.19,32.73 18.19,32.73 18.19,32.73 15.70,32.73 13.22,32.73 12.15,32.73 11.08,32.73 9.88,32.73 8.68,32.73 7.58,32.73 6.48,32.73 5.42,32.73 4.35,32.74 3.01,32.74 1.66,32.75 0.37,32.74 -0.92,32.74 -2.13,32.73 -3.35,32.73 -4.46,32.72 -5.58,32.71 -6.77,32.70 -7.97,32.69 -9.25,32.68 -10.52,32.66 -11.62,32.50 -12.71,32.34 -14.20,31.95 -15.69,31.56 -16.70,31.05 -17.71,30.53 -18.77,30.40 -19.83,30.26 -21.07,29.94 -22.32,29.62 -23.49,28.15 -24.65,26.68 -24.74,25.17 -24.83,23.65 -24.83,22.32 -24.82,20.99 -24.82,19.87 -24.82,18.75 -24.80,17.33 -24.78,15.92 -24.68,14.85 -24.58,13.77 -24.31,12.49 -24.05,11.20 -23.74,9.72 -23.43,8.23 -22.92,7.08 -22.41,5.93 -21.52,4.80 -20.64,3.67 -19.74,2.90 -18.84,2.13 -17.83,1.70 -16.83,1.28 -15.61,0.93 -14.39,0.58 -13.17,-0.02 -11.95,-0.63 -10.45,-1.28 -8.96,-1.93 -7.11,-2.28 -5.26,-2.64 -3.81,-2.61 -2.35,-2.58 -1.25,-2.63 -0.16,-2.67 0.15,-2.65 0.48,-2.63 0.79,-2.54 1.09,-2.44 1.37,-2.28 1.65,-2.11 1.88,-1.88 2.11,-1.65 2.27,-1.37 2.44,-1.10 2.54,-0.79 2.63,-0.48 2.65,-0.16 2.67,0.16 2.62,0.47 2.56,0.79 2.42,1.09 2.29,1.38 2.09,1.64 1.89,1.89 1.64,2.09 1.38,2.29 1.09,2.42 0.79,2.56 0.48,2.61 0.16,2.67 0.16,2.67 L 0.16,2.67 Z"/></g><g transform="translate(125.29873657226562 425.3647155761719) rotate(0 6.580841064453125 13.33648681640625)" stroke="none"><path fill="#000000" d="M 2.33,-0.98 Q 2.33,-0.98 2.74,-0.13 3.14,0.72 3.80,1.62 4.45,2.53 5.68,2.47 6.91,2.42 8.02,2.78 9.13,3.13 10.37,3.76 11.61,4.39 12.48,5.38 13.35,6.36 14.41,7.26 15.47,8.17 16.24,9.21 17.02,10.26 17.51,11.30 18.01,12.35 18.21,13.55 18.42,14.76 18.11,16.25 17.80,17.73 17.13,18.59 16.46,19.45 15.28,20.03 14.11,20.60 13.04,20.83 11.98,21.06 10.70,21.39 9.42,21.73 8.31,22.10 7.21,22.46 6.26,23.10 5.32,23.74 4.46,24.85 3.60,25.96 2.90,26.34 2.21,26.72 2.09,27.32 1.98,27.93 1.68,28.46 1.37,29.00 0.92,29.41 0.46,29.83 -0.10,30.07 -0.66,30.31 -1.28,30.37 -1.89,30.42 -2.49,30.27 -3.09,30.12 -3.60,29.79 -4.12,29.46 -4.51,28.98 -4.90,28.50 -5.11,27.93 -5.33,27.35 -5.34,26.73 -5.36,26.12 -5.18,25.53 -5.00,24.94 -4.64,24.44 -4.29,23.94 -3.79,23.58 -3.29,23.22 -2.70,23.03 -2.11,22.85 -1.49,22.87 -0.88,22.88 -0.30,23.09 0.27,23.30 0.75,23.69 1.23,24.07 1.56,24.59 1.90,25.11 2.05,25.71 2.20,26.31 2.15,26.92 2.10,27.53 1.86,28.10 1.61,28.67 1.20,29.13 0.79,29.58 0.26,29.89 -0.27,30.19 -0.87,30.31 -1.48,30.43 -2.09,30.35 -2.70,30.26 -3.25,29.99 -3.80,29.72 -4.24,29.28 -4.68,28.85 -4.95,28.30 -5.23,27.75 -5.31,27.14 -5.39,26.53 -5.39,26.53 -5.39,26.53 -3.15,23.00 -0.90,19.48 -0.27,18.61 0.35,17.74 1.40,17.01 2.46,16.27 3.58,15.83 4.71,15.39 6.04,14.95 7.36,14.51 8.82,14.13 10.27,13.76 11.46,13.43 12.65,13.11 11.86,14.34 11.07,15.58 10.77,14.41 10.48,13.24 9.67,12.33 8.87,11.41 8.22,10.44 7.57,9.46 6.41,9.00 5.26,8.54 4.20,8.22 3.14,7.91 2.06,7.45 0.99,7.00 0.17,5.99 -0.64,4.97 -1.15,3.86 -1.67,2.75 -2.00,1.87 -2.33,0.98 -2.42,0.69 -2.50,0.39 -2.51,0.09 -2.52,-0.21 -2.46,-0.51 -2.40,-0.81 -2.26,-1.08 -2.13,-1.36 -1.94,-1.59 -1.74,-1.83 -1.50,-2.01 -1.25,-2.20 -0.97,-2.31 -0.69,-2.43 -0.39,-2.48 -0.09,-2.53 0.21,-2.50 0.51,-2.48 0.80,-2.38 1.09,-2.28 1.35,-2.12 1.61,-1.95 1.82,-1.73 2.03,-1.51 2.18,-1.24 2.33,-0.98 2.33,-0.98 L 2.33,-0.98 Z"/></g><g transform="translate(105.70816040039062 252.55050659179688) rotate(0 13.762359619140625 -0.405181884765625)" stroke="none"><path fill="#000000" d="M 0.13,-2.60 Q 0.13,-2.60 1.47,-2.53 2.81,-2.46 4.35,-2.50 5.88,-2.53 7.23,-2.61 8.59,-2.69 9.77,-2.77 10.96,-2.85 12.03,-2.91 13.10,-2.97 14.21,-3.15 15.31,-3.33 16.38,-3.38 17.44,-3.43 18.70,-3.67 19.97,-3.91 21.28,-4.09 22.60,-4.28 25.03,-4.46 27.47,-4.64 28.05,-4.55 28.62,-4.46 29.13,-4.18 29.65,-3.91 30.04,-3.49 30.44,-3.07 30.69,-2.54 30.93,-2.01 31.00,-1.44 31.06,-0.86 30.93,-0.29 30.81,0.27 30.51,0.76 30.21,1.26 29.77,1.64 29.33,2.01 28.79,2.23 28.25,2.44 27.67,2.48 27.09,2.51 26.53,2.35 25.97,2.20 25.49,1.87 25.00,1.54 24.65,1.08 24.30,0.62 24.12,0.07 23.93,-0.47 23.93,-1.05 23.93,-1.63 24.12,-2.18 24.30,-2.73 24.65,-3.20 25.00,-3.66 25.48,-3.98 25.96,-4.31 26.52,-4.47 27.08,-4.62 27.66,-4.59 28.24,-4.56 28.78,-4.34 29.32,-4.13 29.77,-3.75 30.21,-3.38 30.51,-2.88 30.81,-2.38 30.93,-1.81 31.06,-1.25 31.00,-0.67 30.93,-0.09 30.69,0.42 30.45,0.95 30.05,1.37 29.65,1.80 29.13,2.07 28.62,2.34 28.05,2.43 27.47,2.53 27.47,2.53 27.47,2.53 25.29,2.67 23.11,2.82 21.76,2.97 20.40,3.13 19.30,3.25 18.20,3.37 16.83,3.32 15.45,3.27 14.28,3.37 13.10,3.46 12.03,3.40 10.96,3.34 9.76,3.26 8.57,3.19 7.17,3.09 5.78,2.99 4.15,2.87 2.53,2.74 1.20,2.67 -0.13,2.60 -0.44,2.55 -0.75,2.49 -1.04,2.37 -1.33,2.24 -1.58,2.05 -1.83,1.85 -2.02,1.61 -2.22,1.36 -2.35,1.08 -2.48,0.79 -2.54,0.48 -2.60,0.17 -2.58,-0.13 -2.57,-0.45 -2.47,-0.75 -2.38,-1.05 -2.22,-1.32 -2.06,-1.59 -1.84,-1.81 -1.62,-2.04 -1.35,-2.20 -1.08,-2.37 -0.78,-2.46 -0.48,-2.56 -0.17,-2.58 0.13,-2.60 0.13,-2.60 L 0.13,-2.60 Z"/></g><g transform="translate(483.1682434082031 509.7233581542969) rotate(0 0.49609375 11.477935791015625)" stroke="none"><path fill="#000000" d="M 2.63,0 Q 2.63,0 2.62,1.35 2.62,2.70 2.70,4.31 2.77,5.92 2.84,7.04 2.90,8.17 2.98,9.47 3.05,10.78 3.12,11.93 3.18,13.09 3.24,14.29 3.29,15.49 3.34,16.57 3.38,17.64 3.90,19.98 4.42,22.33 4.41,22.89 4.40,23.46 4.22,23.99 4.03,24.52 3.68,24.96 3.33,25.41 2.86,25.72 2.38,26.03 1.84,26.17 1.29,26.31 0.73,26.27 0.16,26.23 -0.35,26.01 -0.87,25.80 -1.29,25.42 -1.72,25.05 -2.00,24.56 -2.28,24.07 -2.39,23.52 -2.51,22.97 -2.44,22.41 -2.37,21.85 -2.12,21.34 -1.88,20.83 -1.48,20.43 -1.09,20.02 -0.58,19.77 -0.08,19.51 0.47,19.43 1.03,19.35 1.58,19.45 2.14,19.55 2.63,19.82 3.13,20.09 3.51,20.51 3.89,20.93 4.12,21.44 4.35,21.96 4.40,22.52 4.45,23.08 4.32,23.63 4.19,24.18 3.89,24.66 3.59,25.14 3.16,25.50 2.72,25.86 2.19,26.06 1.66,26.26 1.10,26.28 0.54,26.30 -0.00,26.14 -0.54,25.98 -1.00,25.65 -1.46,25.33 -1.80,24.87 -2.13,24.42 -2.30,23.88 -2.47,23.34 -2.47,23.34 -2.47,23.34 -2.83,22.13 -3.19,20.92 -3.28,19.28 -3.38,17.64 -3.34,16.57 -3.29,15.49 -3.24,14.29 -3.18,13.09 -3.12,11.93 -3.05,10.78 -2.98,9.47 -2.90,8.17 -2.84,7.04 -2.77,5.92 -2.70,4.31 -2.62,2.70 -2.62,1.35 -2.63,0 -2.59,-0.31 -2.55,-0.63 -2.44,-0.92 -2.33,-1.22 -2.15,-1.48 -1.97,-1.74 -1.73,-1.95 -1.49,-2.16 -1.21,-2.31 -0.93,-2.46 -0.62,-2.53 -0.31,-2.61 0.00,-2.61 0.31,-2.61 0.62,-2.53 0.93,-2.46 1.21,-2.31 1.49,-2.16 1.73,-1.95 1.97,-1.74 2.15,-1.48 2.33,-1.22 2.44,-0.92 2.55,-0.62 2.59,-0.31 2.63,0.00 2.63,0.00 L 2.63,0 Z"/></g><g transform="translate(471.0741271972656 521.5763244628906) rotate(0 11.73553466796875 -0.12872314453125)" stroke="none"><path fill="#000000" d="M 0,-2.56 Q 0,-2.56 0.86,-2.60 1.73,-2.65 2.95,-2.74 4.16,-2.84 5.41,-2.80 6.67,-2.75 7.91,-2.85 9.15,-2.95 10.42,-3.01 11.69,-3.07 12.78,-3.11 13.87,-3.14 14.98,-3.17 16.08,-3.20 17.18,-3.23 18.28,-3.26 20.85,-3.67 23.42,-4.07 23.99,-3.98 24.56,-3.88 25.07,-3.61 25.58,-3.34 25.98,-2.92 26.38,-2.50 26.62,-1.98 26.87,-1.45 26.93,-0.88 26.99,-0.30 26.87,0.25 26.74,0.82 26.44,1.31 26.15,1.81 25.70,2.18 25.26,2.55 24.73,2.77 24.19,2.98 23.61,3.01 23.04,3.05 22.48,2.89 21.92,2.74 21.44,2.41 20.96,2.09 20.61,1.63 20.26,1.17 20.08,0.62 19.90,0.07 19.90,-0.50 19.90,-1.08 20.08,-1.62 20.26,-2.17 20.61,-2.63 20.96,-3.09 21.44,-3.42 21.92,-3.74 22.48,-3.90 23.04,-4.05 23.61,-4.02 24.19,-3.99 24.73,-3.77 25.26,-3.56 25.71,-3.19 26.15,-2.81 26.44,-2.32 26.74,-1.82 26.87,-1.25 26.99,-0.69 26.93,-0.12 26.87,0.45 26.62,0.97 26.38,1.50 25.98,1.92 25.58,2.34 25.07,2.61 24.56,2.88 23.99,2.97 23.42,3.07 23.42,3.07 23.42,3.07 21.96,3.26 20.51,3.45 19.39,3.60 18.28,3.75 17.18,3.72 16.08,3.69 14.98,3.66 13.87,3.63 12.51,3.59 11.16,3.54 9.96,3.48 8.76,3.42 7.59,3.33 6.43,3.24 5.29,3.04 4.16,2.84 2.95,2.74 1.73,2.65 0.86,2.60 0,2.56 -0.30,2.52 -0.61,2.49 -0.90,2.38 -1.19,2.27 -1.44,2.09 -1.70,1.92 -1.90,1.68 -2.11,1.45 -2.25,1.18 -2.39,0.90 -2.47,0.60 -2.54,0.30 -2.54,-0.00 -2.54,-0.30 -2.47,-0.60 -2.39,-0.91 -2.25,-1.18 -2.11,-1.45 -1.90,-1.68 -1.70,-1.92 -1.44,-2.09 -1.19,-2.27 -0.90,-2.38 -0.61,-2.49 -0.30,-2.52 0.00,-2.56 0.00,-2.56 L 0,-2.56 Z"/></g><g transform="translate(10 163.62161254882812) rotate(0 70.5 12.5)"><switch><text x="0" y="18" font-size="20px" fill="#000000" text-anchor="start" id="trsvg20-de" systemLanguage="de"><tspan id="trsvg10-de">Symbolabschnitt</tspan></text><text x="0" y="18" font-size="20px" fill="#000000" text-anchor="start" id="trsvg20-el" systemLanguage="el"><tspan id="trsvg10-el">Ενότητα συμβόλων</tspan></text><text x="0" y="18" font-size="20px" fill="#000000" text-anchor="start" id="trsvg20"><tspan id="trsvg10">Symbol section</tspan></text></switch></g><g stroke-linecap="round" transform="translate(74.89682006835938 197.37051391601562) rotate(0 37.454620361328125 183.44622802734375)"><path d="M-0.76 0.13 C27.15 1.02, 55.52 -0.09, 73.91 1.16 M0.66 0.96 C28.44 0.25, 56.22 -0.22, 74.05 0.42 M75.27 -0.44 C77.15 101.02, 76.15 202.65, 74 367.39 M74.31 0.3 C74.1 84.36, 74.99 170.08, 75.06 367.01 M75.23 365.97 C50.18 368.26, 27.71 369.48, 1.82 365.02 M74.54 366.14 C46.69 367.38, 17.58 367.26, -0.82 366.65 M0.54 366.79 C1.8 280.69, 2.38 190.92, 0.24 -0.73 M0.36 366.96 C1.57 225.3, 1.62 84.38, -0.47 -0.27" stroke="#000000" stroke-width="1" fill="none"/></g><g stroke-linecap="round" transform="translate(437.60076904296875 200.71414184570312) rotate(0 39.100128173828125 183.44622802734375)"><path d="M1.76 -1.39 C21.33 1.69, 43.08 1.81, 79.72 1.39 M0.43 -0.6 C22.45 -0.48, 45.66 0.9, 77.84 0.88 M76.99 -1.09 C80.52 108.61, 79.83 218.94, 78.46 368.06 M78.66 0.13 C76.31 107.83, 76.79 215.22, 77.59 366.86 M79.52 366.34 C59.49 366.35, 42.39 365.94, 1.94 366.57 M77.85 366.76 C55.53 366.94, 30.83 367.07, 0.96 366.47 M-0.13 367.99 C1.2 284.6, 0.79 202.61, 0.91 1.05 M-0.08 366.97 C-0.22 232.89, -0.85 98.41, 0.21 0.07" stroke="#000000" stroke-width="1" fill="none"/></g><g transform="translate(477.01983642578125 243.09698486328125) rotate(0 0.49609375 11.477935791015625)" stroke="none"><path fill="#000000" d="M 2.63,0 Q 2.63,0 2.62,1.35 2.62,2.70 2.70,4.31 2.77,5.92 2.84,7.04 2.90,8.17 2.98,9.47 3.05,10.78 3.12,11.93 3.18,13.09 3.24,14.29 3.29,15.49 3.34,16.57 3.38,17.64 3.90,19.98 4.42,22.33 4.41,22.89 4.40,23.46 4.22,23.99 4.03,24.52 3.68,24.96 3.33,25.41 2.86,25.72 2.38,26.03 1.84,26.17 1.29,26.31 0.73,26.27 0.16,26.23 -0.35,26.01 -0.87,25.80 -1.29,25.42 -1.72,25.05 -2.00,24.56 -2.28,24.07 -2.39,23.52 -2.51,22.97 -2.44,22.41 -2.37,21.85 -2.12,21.34 -1.88,20.83 -1.48,20.43 -1.09,20.02 -0.58,19.77 -0.08,19.51 0.47,19.43 1.03,19.35 1.58,19.45 2.14,19.55 2.63,19.82 3.13,20.09 3.51,20.51 3.89,20.93 4.12,21.44 4.35,21.96 4.40,22.52 4.45,23.08 4.32,23.63 4.19,24.18 3.89,24.66 3.59,25.14 3.16,25.50 2.72,25.86 2.19,26.06 1.66,26.26 1.10,26.28 0.54,26.30 -0.00,26.14 -0.54,25.98 -1.00,25.65 -1.46,25.33 -1.80,24.87 -2.13,24.42 -2.30,23.88 -2.47,23.34 -2.47,23.34 -2.47,23.34 -2.83,22.13 -3.19,20.92 -3.28,19.28 -3.38,17.64 -3.34,16.57 -3.29,15.49 -3.24,14.29 -3.18,13.09 -3.12,11.93 -3.05,10.78 -2.98,9.47 -2.90,8.17 -2.84,7.04 -2.77,5.92 -2.70,4.31 -2.62,2.70 -2.62,1.35 -2.63,0 -2.59,-0.31 -2.55,-0.63 -2.44,-0.92 -2.33,-1.22 -2.15,-1.48 -1.97,-1.74 -1.73,-1.95 -1.49,-2.16 -1.21,-2.31 -0.93,-2.46 -0.62,-2.53 -0.31,-2.61 0.00,-2.61 0.31,-2.61 0.62,-2.53 0.93,-2.46 1.21,-2.31 1.49,-2.16 1.73,-1.95 1.97,-1.74 2.15,-1.48 2.33,-1.22 2.44,-0.92 2.55,-0.62 2.59,-0.31 2.63,0.00 2.63,0.00 L 2.63,0 Z"/></g><g transform="translate(464.92572021484375 254.949951171875) rotate(0 11.73553466796875 -0.12872314453125)" stroke="none"><path fill="#000000" d="M 0,-2.56 Q 0,-2.56 0.86,-2.60 1.73,-2.65 2.95,-2.74 4.16,-2.84 5.41,-2.80 6.67,-2.75 7.91,-2.85 9.15,-2.95 10.42,-3.01 11.69,-3.07 12.78,-3.11 13.87,-3.14 14.98,-3.17 16.08,-3.20 17.18,-3.23 18.28,-3.26 20.85,-3.67 23.42,-4.07 23.99,-3.98 24.56,-3.88 25.07,-3.61 25.58,-3.34 25.98,-2.92 26.38,-2.50 26.62,-1.98 26.87,-1.45 26.93,-0.88 26.99,-0.30 26.87,0.25 26.74,0.82 26.44,1.31 26.15,1.81 25.70,2.18 25.26,2.55 24.73,2.77 24.19,2.98 23.61,3.01 23.04,3.05 22.48,2.89 21.92,2.74 21.44,2.41 20.96,2.09 20.61,1.63 20.26,1.17 20.08,0.62 19.90,0.07 19.90,-0.50 19.90,-1.08 20.08,-1.62 20.26,-2.17 20.61,-2.63 20.96,-3.09 21.44,-3.42 21.92,-3.74 22.48,-3.90 23.04,-4.05 23.61,-4.02 24.19,-3.99 24.73,-3.77 25.26,-3.56 25.71,-3.19 26.15,-2.81 26.44,-2.32 26.74,-1.82 26.87,-1.25 26.99,-0.69 26.93,-0.12 26.87,0.45 26.62,0.97 26.38,1.50 25.98,1.92 25.58,2.34 25.07,2.61 24.56,2.88 23.99,2.97 23.42,3.07 23.42,3.07 23.42,3.07 21.96,3.26 20.51,3.45 19.39,3.60 18.28,3.75 17.18,3.72 16.08,3.69 14.98,3.66 13.87,3.63 12.51,3.59 11.16,3.54 9.96,3.48 8.76,3.42 7.59,3.33 6.43,3.24 5.29,3.04 4.16,2.84 2.95,2.74 1.73,2.65 0.86,2.60 0,2.56 -0.30,2.52 -0.61,2.49 -0.90,2.38 -1.19,2.27 -1.44,2.09 -1.70,1.92 -1.90,1.68 -2.11,1.45 -2.25,1.18 -2.39,0.90 -2.47,0.60 -2.54,0.30 -2.54,-0.00 -2.54,-0.30 -2.47,-0.60 -2.39,-0.91 -2.25,-1.18 -2.11,-1.45 -1.90,-1.68 -1.70,-1.92 -1.44,-2.09 -1.19,-2.27 -0.90,-2.38 -0.61,-2.49 -0.30,-2.52 0.00,-2.56 0.00,-2.56 L 0,-2.56 Z"/></g></svg>